<svg xmlns="http://www.w3.org/2000/svg" width="480" height="448"><path d="m154.25 349.75-12.5 12.5c-3.25 3.25-8.25 3.25-11.5 0l-116.5-116.5c-3.25-3.25-3.25-8.25 0-11.5l116.5-116.5c3.25-3.25 8.25-3.25 11.5 0l12.5 12.5c3.25 3.25 3.25 8.25 0 11.5L56 240l98.25 98.25c3.25 3.25 3.25 8.25 0 11.5M302 83l-93.25 322.75c-1.25 4.25-5.75 6.75-9.75 5.5L183.5 407c-4.25-1.25-6.75-5.75-5.5-10l93.25-322.75C272.5 70 277 67.5 281 68.75L296.5 73c4.25 1.25 6.75 5.75 5.5 10m164.25 162.75-116.5 116.5c-3.25 3.25-8.25 3.25-11.5 0l-12.5-12.5c-3.25-3.25-3.25-8.25 0-11.5L424 240l-98.25-98.25c-3.25-3.25-3.25-8.25 0-11.5l12.5-12.5c3.25-3.25 8.25-3.25 11.5 0l116.5 116.5c3.25 3.25 3.25 8.25 0 11.5"/></svg>